<?xml version="1.0" encoding="utf-8" standalone="no"?>
<!DOCTYPE svg PUBLIC "-//W3C//DTD SVG 1.1//EN"
  "http://www.w3.org/Graphics/SVG/1.1/DTD/svg11.dtd">
<svg xmlns:xlink="http://www.w3.org/1999/xlink" width="834.022938pt" height="426.683625pt" viewBox="0 0 834.022938 426.683625" xmlns="http://www.w3.org/2000/svg" version="1.1">
 <metadata>
  <rdf:RDF xmlns:dc="http://purl.org/dc/elements/1.1/" xmlns:cc="http://creativecommons.org/ns#" xmlns:rdf="http://www.w3.org/1999/02/22-rdf-syntax-ns#">
   <cc:Work>
    <dc:type rdf:resource="http://purl.org/dc/dcmitype/StillImage"/>
    <dc:date>2024-07-30T14:41:20.455283</dc:date>
    <dc:format>image/svg+xml</dc:format>
    <dc:creator>
     <cc:Agent>
      <dc:title>Matplotlib v3.8.4, https://matplotlib.org/</dc:title>
     </cc:Agent>
    </dc:creator>
   </cc:Work>
  </rdf:RDF>
 </metadata>
 <defs>
  <style type="text/css">*{stroke-linejoin: round; stroke-linecap: butt}</style>
 </defs>
 <g id="figure_1">
  <g id="patch_1">
   <path d="M 0 426.683625 
L 834.022938 426.683625 
L 834.022938 0 
L 0 0 
z
" style="fill: #ffffff"/>
  </g>
  <g id="axes_1">
   <g id="patch_2">
    <path d="M 88.47625 365.899875 
L 758.07625 365.899875 
L 758.07625 33.259875 
L 88.47625 33.259875 
z
" style="fill: #ffffff"/>
   </g>
   <g id="PolyCollection_1">
    <defs>
     <path id="md3f0a0c17d" d="M 118.912614 -174.652884 
L 118.912614 -108.781454 
L 126.618022 -128.48496 
L 134.323431 -131.452257 
L 142.028839 -99.480638 
L 149.734248 -100.040896 
L 157.439656 -94.75115 
L 165.145065 -103.838986 
L 172.850473 -101.684502 
L 180.555882 -120.020065 
L 188.26129 -136.116867 
L 195.966699 -113.798165 
L 203.672107 -115.435759 
L 211.377516 -135.795695 
L 219.082924 -142.244815 
L 226.788333 -113.678176 
L 234.493741 -160.513562 
L 242.19915 -196.694873 
L 249.904558 -160.276037 
L 257.609967 -168.585385 
L 265.315375 -155.044838 
L 273.020784 -112.197375 
L 280.726192 -127.486506 
L 288.431601 -169.448747 
L 296.137009 -145.602326 
L 303.842418 -121.29254 
L 311.547827 -145.180647 
L 319.253235 -155.235576 
L 326.958644 -119.725235 
L 334.664052 -89.896302 
L 342.369461 -79.934126 
L 350.074869 -96.512838 
L 357.780278 -109.976377 
L 365.485686 -121.619366 
L 373.191095 -150.320161 
L 380.896503 -175.950176 
L 388.601912 -162.551991 
L 396.30732 -164.625821 
L 404.012729 -139.318618 
L 411.718137 -119.403239 
L 419.423546 -143.092248 
L 427.128954 -155.783558 
L 434.834363 -164.222676 
L 442.539771 -150.848176 
L 450.24518 -184.098977 
L 457.950588 -175.217864 
L 465.655997 -120.020065 
L 473.361405 -139.204684 
L 481.066814 -189.961006 
L 488.772222 -206.087557 
L 496.477631 -212.73437 
L 504.183039 -249.190032 
L 511.888448 -250.114133 
L 519.593856 -208.240802 
L 527.299265 -177.275891 
L 535.004673 -161.26044 
L 542.710082 -163.788965 
L 550.415491 -199.68023 
L 558.120899 -253.744318 
L 565.826308 -279.531871 
L 573.531716 -260.406742 
L 581.237125 -235.10572 
L 588.942533 -222.888289 
L 596.647942 -203.708034 
L 604.35335 -183.985044 
L 612.058759 -190.790983 
L 619.764167 -214.249994 
L 627.469576 -210.53003 
L 635.174984 -184.948467 
L 642.880393 -187.209715 
L 650.585801 -220.201964 
L 658.29121 -220.201964 
L 665.996618 -195.25726 
L 673.702027 -236.274396 
L 681.407435 -240.530347 
L 689.112844 -214.503315 
L 696.818252 -227.149304 
L 704.523661 -260.976742 
L 712.229069 -236.775794 
L 719.934478 -213.960817 
L 727.639886 -234.758497 
L 727.639886 -311.387284 
L 727.639886 -311.387284 
L 719.934478 -290.389962 
L 712.229069 -315.340701 
L 704.523661 -326.964041 
L 696.818252 -295.113618 
L 689.112844 -283.876749 
L 681.407435 -317.556863 
L 673.702027 -303.90067 
L 665.996618 -273.26923 
L 658.29121 -278.1781 
L 650.585801 -278.1781 
L 642.880393 -245.492488 
L 635.174984 -235.812307 
L 627.469576 -269.93789 
L 619.764167 -278.159355 
L 612.058759 -247.881935 
L 604.35335 -242.746445 
L 596.647942 -258.847742 
L 588.942533 -269.521061 
L 581.237125 -287.157203 
L 573.531716 -315.592611 
L 565.826308 -344.2332 
L 558.120899 -316.284321 
L 550.415491 -256.904832 
L 542.710082 -233.08895 
L 535.004673 -241.58819 
L 527.299265 -249.455597 
L 519.593856 -284.168548 
L 511.888448 -331.855936 
L 504.183039 -326.809322 
L 496.477631 -261.762835 
L 488.772222 -238.556075 
L 481.066814 -242.741197 
L 473.361405 -197.966085 
L 465.655997 -181.326417 
L 457.950588 -251.513625 
L 450.24518 -248.603226 
L 442.539771 -216.176167 
L 434.834363 -238.625954 
L 427.128954 -229.152928 
L 419.423546 -200.049236 
L 411.718137 -181.943243 
L 404.012729 -203.822866 
L 396.30732 -232.252095 
L 388.601912 -264.179497 
L 380.896503 -256.752027 
L 373.191095 -204.762752 
L 365.485686 -179.727116 
L 357.780278 -185.39939 
L 350.074869 -169.009355 
L 342.369461 -137.822351 
L 334.664052 -127.860175 
L 326.958644 -169.679817 
L 319.253235 -211.788767 
L 311.547827 -197.960837 
L 303.842418 -180.053941 
L 296.137009 -215.451302 
L 288.431601 -239.370597 
L 280.726192 -179.83069 
L 273.020784 -165.266248 
L 265.315375 -217.950219 
L 257.609967 -234.263245 
L 249.904558 -218.689734 
L 242.19915 -253.919474 
L 234.493741 -224.422924 
L 226.788333 -163.785447 
L 219.082924 -206.867384 
L 211.377516 -213.316504 
L 203.672107 -179.940008 
L 195.966699 -187.548317 
L 188.26129 -201.053903 
L 180.555882 -181.326417 
L 172.850473 -175.779121 
L 165.145065 -161.683208 
L 157.439656 -152.8589 
L 149.734248 -153.539869 
L 142.028839 -172.012271 
L 134.323431 -205.718512 
L 126.618022 -208.685809 
L 118.912614 -174.652884 
z
" style="stroke: #003074; stroke-opacity: 0.3"/>
    </defs>
    <g clip-path="url(#p3aa9d6b24a)">
     <use xlink:href="#md3f0a0c17d" x="0" y="426.683625" style="fill: #003074; fill-opacity: 0.3; stroke: #003074; stroke-opacity: 0.3"/>
    </g>
   </g>
   <g id="PolyCollection_2">
    <defs>
     <path id="m2e53f855db" d="M 118.912614 -312.993432 
L 118.912614 -167.474488 
L 126.618022 -110.767069 
L 134.323431 -129.477799 
L 142.028839 -236.730658 
L 149.734248 -177.541457 
L 157.439656 -125.169215 
L 165.145065 -158.049909 
L 172.850473 -187.402275 
L 180.555882 -225.792419 
L 188.26129 -219.038518 
L 195.966699 -154.196544 
L 203.672107 -161.042638 
L 211.377516 -216.650387 
L 219.082924 -216.513541 
L 226.788333 -137.900541 
L 234.493741 -179.055464 
L 242.19915 -200.327788 
L 249.904558 -134.610377 
L 257.609967 -111.238543 
L 265.315375 -139.602927 
L 273.020784 -166.943735 
L 280.726192 -191.124999 
L 288.431601 -177.541457 
L 296.137009 -180.794219 
L 303.842418 -204.409672 
L 311.547827 -141.08068 
L 319.253235 -113.01442 
L 326.958644 -156.126011 
L 334.664052 -130.063863 
L 342.369461 -98.836227 
L 350.074869 -75.90375 
L 357.780278 -143.988179 
L 365.485686 -160.882961 
L 373.191095 -114.848953 
L 380.896503 -106.213561 
L 388.601912 -112.151719 
L 396.30732 -135.1021 
L 404.012729 -112.663275 
L 411.718137 -104.626238 
L 419.423546 -119.845999 
L 427.128954 -108.748563 
L 434.834363 -146.591356 
L 442.539771 -182.770025 
L 450.24518 -168.138695 
L 457.950588 -191.724889 
L 465.655997 -208.231998 
L 473.361405 -184.021419 
L 481.066814 -167.005981 
L 488.772222 -150.424844 
L 496.477631 -134.275104 
L 504.183039 -105.337433 
L 511.888448 -192.239276 
L 519.593856 -222.321816 
L 527.299265 -153.352207 
L 535.004673 -144.969931 
L 542.710082 -107.84235 
L 550.415491 -97.217235 
L 558.120899 -189.645326 
L 565.826308 -257.259278 
L 573.531716 -202.223995 
L 581.237125 -165.553404 
L 588.942533 -172.323867 
L 596.647942 -214.122748 
L 604.35335 -187.254532 
L 612.058759 -140.393326 
L 619.764167 -103.077366 
L 627.469576 -88.301417 
L 635.174984 -183.661814 
L 642.880393 -167.698559 
L 650.585801 -78.652783 
L 658.29121 -114.848953 
L 665.996618 -163.663936 
L 673.702027 -133.665844 
L 681.407435 -107.257071 
L 689.112844 -93.487246 
L 696.818252 -97.841556 
L 704.523661 -142.474172 
L 712.229069 -185.94208 
L 719.934478 -158.049909 
L 727.639886 -127.964817 
L 727.639886 -191.293809 
L 727.639886 -191.293809 
L 719.934478 -286.593723 
L 712.229069 -258.701552 
L 704.523661 -194.696597 
L 696.818252 -185.592781 
L 689.112844 -189.947092 
L 681.407435 -194.08941 
L 673.702027 -221.417069 
L 665.996618 -209.331121 
L 658.29121 -150.673241 
L 650.585801 -186.869411 
L 642.880393 -259.03293 
L 635.174984 -243.069674 
L 627.469576 -213.045064 
L 619.764167 -234.093403 
L 612.058759 -232.60173 
L 604.35335 -239.476957 
L 596.647942 -266.345172 
L 588.942533 -254.407622 
L 581.237125 -261.178085 
L 573.531716 -296.156069 
L 565.826308 -348.593649 
L 558.120899 -326.646882 
L 550.415491 -239.953534 
L 542.710082 -229.32842 
L 535.004673 -228.025126 
L 527.299265 -255.467138 
L 519.593856 -293.970392 
L 511.888448 -270.316501 
L 504.183039 -178.096905 
L 496.477631 -238.719953 
L 488.772222 -312.130932 
L 481.066814 -295.549795 
L 473.361405 -332.270788 
L 465.655997 -361.796642 
L 457.950588 -378.30375 
L 450.24518 -348.153513 
L 442.539771 -315.610039 
L 434.834363 -298.052276 
L 427.128954 -246.33435 
L 419.423546 -235.236914 
L 411.718137 -232.544531 
L 404.012729 -206.59535 
L 396.30732 -184.156526 
L 388.601912 -189.194763 
L 380.896503 -230.957208 
L 373.191095 -240.23396 
L 365.485686 -319.584959 
L 357.780278 -300.655453 
L 350.074869 -207.530588 
L 342.369461 -202.510255 
L 334.664052 -207.106907 
L 326.958644 -216.869046 
L 319.253235 -224.156349 
L 311.547827 -267.738664 
L 303.842418 -276.058248 
L 296.137009 -263.849413 
L 288.431601 -338.750751 
L 280.726192 -325.167209 
L 273.020784 -241.875609 
L 265.315375 -179.655698 
L 257.609967 -225.932226 
L 249.904558 -327.945399 
L 242.19915 -351.788707 
L 234.493741 -283.500313 
L 226.788333 -288.830948 
L 219.082924 -353.515098 
L 211.377516 -335.466108 
L 203.672107 -301.513138 
L 195.966699 -344.18352 
L 188.26129 -368.902265 
L 180.555882 -326.324077 
L 172.850473 -275.153501 
L 165.145065 -286.593723 
L 157.439656 -212.001554 
L 149.734248 -249.190032 
L 142.028839 -297.473693 
L 134.323431 -279.341546 
L 126.618022 -262.227988 
L 118.912614 -312.993432 
z
" style="stroke: #4d7dc1; stroke-opacity: 0.3"/>
    </defs>
    <g clip-path="url(#p3aa9d6b24a)">
     <use xlink:href="#m2e53f855db" x="0" y="426.683625" style="fill: #4d7dc1; fill-opacity: 0.3; stroke: #4d7dc1; stroke-opacity: 0.3"/>
    </g>
   </g>
   <g id="matplotlib.axis_1">
    <g id="xtick_1">
     <g id="line2d_1">
      <defs>
       <path id="m30277d918e" d="M 0 0 
L 0 3.5 
" style="stroke: #000000; stroke-width: 0.8"/>
      </defs>
      <g>
       <use xlink:href="#m30277d918e" x="118.912614" y="365.899875" style="stroke: #000000; stroke-width: 0.8"/>
      </g>
     </g>
     <g id="text_1">
      <!-- −10.0 -->
      <g transform="translate(85.20277 389.616437) scale(0.22 -0.22)">
       <defs>
        <path id="DejaVuSans-2212" d="M 678 2272 
L 4684 2272 
L 4684 1741 
L 678 1741 
L 678 2272 
z
" transform="scale(0.015625)"/>
        <path id="DejaVuSans-31" d="M 794 531 
L 1825 531 
L 1825 4091 
L 703 3866 
L 703 4441 
L 1819 4666 
L 2450 4666 
L 2450 531 
L 3481 531 
L 3481 0 
L 794 0 
L 794 531 
z
" transform="scale(0.015625)"/>
        <path id="DejaVuSans-30" d="M 2034 4250 
Q 1547 4250 1301 3770 
Q 1056 3291 1056 2328 
Q 1056 1369 1301 889 
Q 1547 409 2034 409 
Q 2525 409 2770 889 
Q 3016 1369 3016 2328 
Q 3016 3291 2770 3770 
Q 2525 4250 2034 4250 
z
M 2034 4750 
Q 2819 4750 3233 4129 
Q 3647 3509 3647 2328 
Q 3647 1150 3233 529 
Q 2819 -91 2034 -91 
Q 1250 -91 836 529 
Q 422 1150 422 2328 
Q 422 3509 836 4129 
Q 1250 4750 2034 4750 
z
" transform="scale(0.015625)"/>
        <path id="DejaVuSans-2e" d="M 684 794 
L 1344 794 
L 1344 0 
L 684 0 
L 684 794 
z
" transform="scale(0.015625)"/>
       </defs>
       <use xlink:href="#DejaVuSans-2212"/>
       <use xlink:href="#DejaVuSans-31" x="83.789062"/>
       <use xlink:href="#DejaVuSans-30" x="147.412109"/>
       <use xlink:href="#DejaVuSans-2e" x="211.035156"/>
       <use xlink:href="#DejaVuSans-30" x="242.822266"/>
      </g>
     </g>
    </g>
    <g id="xtick_2">
     <g id="line2d_2">
      <g>
       <use xlink:href="#m30277d918e" x="195.966699" y="365.899875" style="stroke: #000000; stroke-width: 0.8"/>
      </g>
     </g>
     <g id="text_2">
      <!-- −7.5 -->
      <g transform="translate(169.255605 389.616437) scale(0.22 -0.22)">
       <defs>
        <path id="DejaVuSans-37" d="M 525 4666 
L 3525 4666 
L 3525 4397 
L 1831 0 
L 1172 0 
L 2766 4134 
L 525 4134 
L 525 4666 
z
" transform="scale(0.015625)"/>
        <path id="DejaVuSans-35" d="M 691 4666 
L 3169 4666 
L 3169 4134 
L 1269 4134 
L 1269 2991 
Q 1406 3038 1543 3061 
Q 1681 3084 1819 3084 
Q 2600 3084 3056 2656 
Q 3513 2228 3513 1497 
Q 3513 744 3044 326 
Q 2575 -91 1722 -91 
Q 1428 -91 1123 -41 
Q 819 9 494 109 
L 494 744 
Q 775 591 1075 516 
Q 1375 441 1709 441 
Q 2250 441 2565 725 
Q 2881 1009 2881 1497 
Q 2881 1984 2565 2268 
Q 2250 2553 1709 2553 
Q 1456 2553 1204 2497 
Q 953 2441 691 2322 
L 691 4666 
z
" transform="scale(0.015625)"/>
       </defs>
       <use xlink:href="#DejaVuSans-2212"/>
       <use xlink:href="#DejaVuSans-37" x="83.789062"/>
       <use xlink:href="#DejaVuSans-2e" x="147.412109"/>
       <use xlink:href="#DejaVuSans-35" x="179.199219"/>
      </g>
     </g>
    </g>
    <g id="xtick_3">
     <g id="line2d_3">
      <g>
       <use xlink:href="#m30277d918e" x="273.020784" y="365.899875" style="stroke: #000000; stroke-width: 0.8"/>
      </g>
     </g>
     <g id="text_3">
      <!-- −5.0 -->
      <g transform="translate(246.30969 389.616437) scale(0.22 -0.22)">
       <use xlink:href="#DejaVuSans-2212"/>
       <use xlink:href="#DejaVuSans-35" x="83.789062"/>
       <use xlink:href="#DejaVuSans-2e" x="147.412109"/>
       <use xlink:href="#DejaVuSans-30" x="179.199219"/>
      </g>
     </g>
    </g>
    <g id="xtick_4">
     <g id="line2d_4">
      <g>
       <use xlink:href="#m30277d918e" x="350.074869" y="365.899875" style="stroke: #000000; stroke-width: 0.8"/>
      </g>
     </g>
     <g id="text_4">
      <!-- −2.5 -->
      <g transform="translate(323.363775 389.616437) scale(0.22 -0.22)">
       <defs>
        <path id="DejaVuSans-32" d="M 1228 531 
L 3431 531 
L 3431 0 
L 469 0 
L 469 531 
Q 828 903 1448 1529 
Q 2069 2156 2228 2338 
Q 2531 2678 2651 2914 
Q 2772 3150 2772 3378 
Q 2772 3750 2511 3984 
Q 2250 4219 1831 4219 
Q 1534 4219 1204 4116 
Q 875 4013 500 3803 
L 500 4441 
Q 881 4594 1212 4672 
Q 1544 4750 1819 4750 
Q 2544 4750 2975 4387 
Q 3406 4025 3406 3419 
Q 3406 3131 3298 2873 
Q 3191 2616 2906 2266 
Q 2828 2175 2409 1742 
Q 1991 1309 1228 531 
z
" transform="scale(0.015625)"/>
       </defs>
       <use xlink:href="#DejaVuSans-2212"/>
       <use xlink:href="#DejaVuSans-32" x="83.789062"/>
       <use xlink:href="#DejaVuSans-2e" x="147.412109"/>
       <use xlink:href="#DejaVuSans-35" x="179.199219"/>
      </g>
     </g>
    </g>
    <g id="xtick_5">
     <g id="line2d_5">
      <g>
       <use xlink:href="#m30277d918e" x="427.128954" y="365.899875" style="stroke: #000000; stroke-width: 0.8"/>
      </g>
     </g>
     <g id="text_5">
      <!-- 0.0 -->
      <g transform="translate(409.635517 389.616437) scale(0.22 -0.22)">
       <use xlink:href="#DejaVuSans-30"/>
       <use xlink:href="#DejaVuSans-2e" x="63.623047"/>
       <use xlink:href="#DejaVuSans-30" x="95.410156"/>
      </g>
     </g>
    </g>
    <g id="xtick_6">
     <g id="line2d_6">
      <g>
       <use xlink:href="#m30277d918e" x="504.183039" y="365.899875" style="stroke: #000000; stroke-width: 0.8"/>
      </g>
     </g>
     <g id="text_6">
      <!-- 2.5 -->
      <g transform="translate(486.689602 389.616437) scale(0.22 -0.22)">
       <use xlink:href="#DejaVuSans-32"/>
       <use xlink:href="#DejaVuSans-2e" x="63.623047"/>
       <use xlink:href="#DejaVuSans-35" x="95.410156"/>
      </g>
     </g>
    </g>
    <g id="xtick_7">
     <g id="line2d_7">
      <g>
       <use xlink:href="#m30277d918e" x="581.237125" y="365.899875" style="stroke: #000000; stroke-width: 0.8"/>
      </g>
     </g>
     <g id="text_7">
      <!-- 5.0 -->
      <g transform="translate(563.743687 389.616437) scale(0.22 -0.22)">
       <use xlink:href="#DejaVuSans-35"/>
       <use xlink:href="#DejaVuSans-2e" x="63.623047"/>
       <use xlink:href="#DejaVuSans-30" x="95.410156"/>
      </g>
     </g>
    </g>
    <g id="xtick_8">
     <g id="line2d_8">
      <g>
       <use xlink:href="#m30277d918e" x="658.29121" y="365.899875" style="stroke: #000000; stroke-width: 0.8"/>
      </g>
     </g>
     <g id="text_8">
      <!-- 7.5 -->
      <g transform="translate(640.797772 389.616437) scale(0.22 -0.22)">
       <use xlink:href="#DejaVuSans-37"/>
       <use xlink:href="#DejaVuSans-2e" x="63.623047"/>
       <use xlink:href="#DejaVuSans-35" x="95.410156"/>
      </g>
     </g>
    </g>
    <g id="xtick_9">
     <g id="line2d_9">
      <g>
       <use xlink:href="#m30277d918e" x="735.345295" y="365.899875" style="stroke: #000000; stroke-width: 0.8"/>
      </g>
     </g>
     <g id="text_9">
      <!-- 10.0 -->
      <g transform="translate(710.853107 389.616437) scale(0.22 -0.22)">
       <use xlink:href="#DejaVuSans-31"/>
       <use xlink:href="#DejaVuSans-30" x="63.623047"/>
       <use xlink:href="#DejaVuSans-2e" x="127.246094"/>
       <use xlink:href="#DejaVuSans-30" x="159.033203"/>
      </g>
     </g>
    </g>
    <g id="text_10">
     <!-- Time (seconds) -->
     <g transform="translate(339.320469 414.908312) scale(0.22 -0.22)">
      <defs>
       <path id="DejaVuSans-54" d="M -19 4666 
L 3928 4666 
L 3928 4134 
L 2272 4134 
L 2272 0 
L 1638 0 
L 1638 4134 
L -19 4134 
L -19 4666 
z
" transform="scale(0.015625)"/>
       <path id="DejaVuSans-69" d="M 603 3500 
L 1178 3500 
L 1178 0 
L 603 0 
L 603 3500 
z
M 603 4863 
L 1178 4863 
L 1178 4134 
L 603 4134 
L 603 4863 
z
" transform="scale(0.015625)"/>
       <path id="DejaVuSans-6d" d="M 3328 2828 
Q 3544 3216 3844 3400 
Q 4144 3584 4550 3584 
Q 5097 3584 5394 3201 
Q 5691 2819 5691 2113 
L 5691 0 
L 5113 0 
L 5113 2094 
Q 5113 2597 4934 2840 
Q 4756 3084 4391 3084 
Q 3944 3084 3684 2787 
Q 3425 2491 3425 1978 
L 3425 0 
L 2847 0 
L 2847 2094 
Q 2847 2600 2669 2842 
Q 2491 3084 2119 3084 
Q 1678 3084 1418 2786 
Q 1159 2488 1159 1978 
L 1159 0 
L 581 0 
L 581 3500 
L 1159 3500 
L 1159 2956 
Q 1356 3278 1631 3431 
Q 1906 3584 2284 3584 
Q 2666 3584 2933 3390 
Q 3200 3197 3328 2828 
z
" transform="scale(0.015625)"/>
       <path id="DejaVuSans-65" d="M 3597 1894 
L 3597 1613 
L 953 1613 
Q 991 1019 1311 708 
Q 1631 397 2203 397 
Q 2534 397 2845 478 
Q 3156 559 3463 722 
L 3463 178 
Q 3153 47 2828 -22 
Q 2503 -91 2169 -91 
Q 1331 -91 842 396 
Q 353 884 353 1716 
Q 353 2575 817 3079 
Q 1281 3584 2069 3584 
Q 2775 3584 3186 3129 
Q 3597 2675 3597 1894 
z
M 3022 2063 
Q 3016 2534 2758 2815 
Q 2500 3097 2075 3097 
Q 1594 3097 1305 2825 
Q 1016 2553 972 2059 
L 3022 2063 
z
" transform="scale(0.015625)"/>
       <path id="DejaVuSans-20" transform="scale(0.015625)"/>
       <path id="DejaVuSans-28" d="M 1984 4856 
Q 1566 4138 1362 3434 
Q 1159 2731 1159 2009 
Q 1159 1288 1364 580 
Q 1569 -128 1984 -844 
L 1484 -844 
Q 1016 -109 783 600 
Q 550 1309 550 2009 
Q 550 2706 781 3412 
Q 1013 4119 1484 4856 
L 1984 4856 
z
" transform="scale(0.015625)"/>
       <path id="DejaVuSans-73" d="M 2834 3397 
L 2834 2853 
Q 2591 2978 2328 3040 
Q 2066 3103 1784 3103 
Q 1356 3103 1142 2972 
Q 928 2841 928 2578 
Q 928 2378 1081 2264 
Q 1234 2150 1697 2047 
L 1894 2003 
Q 2506 1872 2764 1633 
Q 3022 1394 3022 966 
Q 3022 478 2636 193 
Q 2250 -91 1575 -91 
Q 1294 -91 989 -36 
Q 684 19 347 128 
L 347 722 
Q 666 556 975 473 
Q 1284 391 1588 391 
Q 1994 391 2212 530 
Q 2431 669 2431 922 
Q 2431 1156 2273 1281 
Q 2116 1406 1581 1522 
L 1381 1569 
Q 847 1681 609 1914 
Q 372 2147 372 2553 
Q 372 3047 722 3315 
Q 1072 3584 1716 3584 
Q 2034 3584 2315 3537 
Q 2597 3491 2834 3397 
z
" transform="scale(0.015625)"/>
       <path id="DejaVuSans-63" d="M 3122 3366 
L 3122 2828 
Q 2878 2963 2633 3030 
Q 2388 3097 2138 3097 
Q 1578 3097 1268 2742 
Q 959 2388 959 1747 
Q 959 1106 1268 751 
Q 1578 397 2138 397 
Q 2388 397 2633 464 
Q 2878 531 3122 666 
L 3122 134 
Q 2881 22 2623 -34 
Q 2366 -91 2075 -91 
Q 1284 -91 818 406 
Q 353 903 353 1747 
Q 353 2603 823 3093 
Q 1294 3584 2113 3584 
Q 2378 3584 2631 3529 
Q 2884 3475 3122 3366 
z
" transform="scale(0.015625)"/>
       <path id="DejaVuSans-6f" d="M 1959 3097 
Q 1497 3097 1228 2736 
Q 959 2375 959 1747 
Q 959 1119 1226 758 
Q 1494 397 1959 397 
Q 2419 397 2687 759 
Q 2956 1122 2956 1747 
Q 2956 2369 2687 2733 
Q 2419 3097 1959 3097 
z
M 1959 3584 
Q 2709 3584 3137 3096 
Q 3566 2609 3566 1747 
Q 3566 888 3137 398 
Q 2709 -91 1959 -91 
Q 1206 -91 779 398 
Q 353 888 353 1747 
Q 353 2609 779 3096 
Q 1206 3584 1959 3584 
z
" transform="scale(0.015625)"/>
       <path id="DejaVuSans-6e" d="M 3513 2113 
L 3513 0 
L 2938 0 
L 2938 2094 
Q 2938 2591 2744 2837 
Q 2550 3084 2163 3084 
Q 1697 3084 1428 2787 
Q 1159 2491 1159 1978 
L 1159 0 
L 581 0 
L 581 3500 
L 1159 3500 
L 1159 2956 
Q 1366 3272 1645 3428 
Q 1925 3584 2291 3584 
Q 2894 3584 3203 3211 
Q 3513 2838 3513 2113 
z
" transform="scale(0.015625)"/>
       <path id="DejaVuSans-64" d="M 2906 2969 
L 2906 4863 
L 3481 4863 
L 3481 0 
L 2906 0 
L 2906 525 
Q 2725 213 2448 61 
Q 2172 -91 1784 -91 
Q 1150 -91 751 415 
Q 353 922 353 1747 
Q 353 2572 751 3078 
Q 1150 3584 1784 3584 
Q 2172 3584 2448 3432 
Q 2725 3281 2906 2969 
z
M 947 1747 
Q 947 1113 1208 752 
Q 1469 391 1925 391 
Q 2381 391 2643 752 
Q 2906 1113 2906 1747 
Q 2906 2381 2643 2742 
Q 2381 3103 1925 3103 
Q 1469 3103 1208 2742 
Q 947 2381 947 1747 
z
" transform="scale(0.015625)"/>
       <path id="DejaVuSans-29" d="M 513 4856 
L 1013 4856 
Q 1481 4119 1714 3412 
Q 1947 2706 1947 2009 
Q 1947 1309 1714 600 
Q 1481 -109 1013 -844 
L 513 -844 
Q 928 -128 1133 580 
Q 1338 1288 1338 2009 
Q 1338 2731 1133 3434 
Q 928 4138 513 4856 
z
" transform="scale(0.015625)"/>
      </defs>
      <use xlink:href="#DejaVuSans-54"/>
      <use xlink:href="#DejaVuSans-69" x="57.958984"/>
      <use xlink:href="#DejaVuSans-6d" x="85.742188"/>
      <use xlink:href="#DejaVuSans-65" x="183.154297"/>
      <use xlink:href="#DejaVuSans-20" x="244.677734"/>
      <use xlink:href="#DejaVuSans-28" x="276.464844"/>
      <use xlink:href="#DejaVuSans-73" x="315.478516"/>
      <use xlink:href="#DejaVuSans-65" x="367.578125"/>
      <use xlink:href="#DejaVuSans-63" x="429.101562"/>
      <use xlink:href="#DejaVuSans-6f" x="484.082031"/>
      <use xlink:href="#DejaVuSans-6e" x="545.263672"/>
      <use xlink:href="#DejaVuSans-64" x="608.642578"/>
      <use xlink:href="#DejaVuSans-73" x="672.119141"/>
      <use xlink:href="#DejaVuSans-29" x="724.21875"/>
     </g>
    </g>
   </g>
   <g id="matplotlib.axis_2">
    <g id="ytick_1">
     <g id="line2d_10">
      <defs>
       <path id="m79c3da219b" d="M 0 0 
L -3.5 0 
" style="stroke: #000000; stroke-width: 0.8"/>
      </defs>
      <g>
       <use xlink:href="#m79c3da219b" x="88.47625" y="334.224852" style="stroke: #000000; stroke-width: 0.8"/>
      </g>
     </g>
     <g id="text_11">
      <!-- 5.0 -->
      <g transform="translate(46.489375 342.583133) scale(0.22 -0.22)">
       <use xlink:href="#DejaVuSans-35"/>
       <use xlink:href="#DejaVuSans-2e" x="63.623047"/>
       <use xlink:href="#DejaVuSans-30" x="95.410156"/>
      </g>
     </g>
    </g>
    <g id="ytick_2">
     <g id="line2d_11">
      <g>
       <use xlink:href="#m79c3da219b" x="88.47625" y="278.249402" style="stroke: #000000; stroke-width: 0.8"/>
      </g>
     </g>
     <g id="text_12">
      <!-- 7.5 -->
      <g transform="translate(46.489375 286.607683) scale(0.22 -0.22)">
       <use xlink:href="#DejaVuSans-37"/>
       <use xlink:href="#DejaVuSans-2e" x="63.623047"/>
       <use xlink:href="#DejaVuSans-35" x="95.410156"/>
      </g>
     </g>
    </g>
    <g id="ytick_3">
     <g id="line2d_12">
      <g>
       <use xlink:href="#m79c3da219b" x="88.47625" y="222.273953" style="stroke: #000000; stroke-width: 0.8"/>
      </g>
     </g>
     <g id="text_13">
      <!-- 10.0 -->
      <g transform="translate(32.491875 230.632234) scale(0.22 -0.22)">
       <use xlink:href="#DejaVuSans-31"/>
       <use xlink:href="#DejaVuSans-30" x="63.623047"/>
       <use xlink:href="#DejaVuSans-2e" x="127.246094"/>
       <use xlink:href="#DejaVuSans-30" x="159.033203"/>
      </g>
     </g>
    </g>
    <g id="ytick_4">
     <g id="line2d_13">
      <g>
       <use xlink:href="#m79c3da219b" x="88.47625" y="166.298503" style="stroke: #000000; stroke-width: 0.8"/>
      </g>
     </g>
     <g id="text_14">
      <!-- 12.5 -->
      <g transform="translate(32.491875 174.656784) scale(0.22 -0.22)">
       <use xlink:href="#DejaVuSans-31"/>
       <use xlink:href="#DejaVuSans-32" x="63.623047"/>
       <use xlink:href="#DejaVuSans-2e" x="127.246094"/>
       <use xlink:href="#DejaVuSans-35" x="159.033203"/>
      </g>
     </g>
    </g>
    <g id="ytick_5">
     <g id="line2d_14">
      <g>
       <use xlink:href="#m79c3da219b" x="88.47625" y="110.323054" style="stroke: #000000; stroke-width: 0.8"/>
      </g>
     </g>
     <g id="text_15">
      <!-- 15.0 -->
      <g transform="translate(32.491875 118.681335) scale(0.22 -0.22)">
       <use xlink:href="#DejaVuSans-31"/>
       <use xlink:href="#DejaVuSans-35" x="63.623047"/>
       <use xlink:href="#DejaVuSans-2e" x="127.246094"/>
       <use xlink:href="#DejaVuSans-30" x="159.033203"/>
      </g>
     </g>
    </g>
    <g id="ytick_6">
     <g id="line2d_15">
      <g>
       <use xlink:href="#m79c3da219b" x="88.47625" y="54.347604" style="stroke: #000000; stroke-width: 0.8"/>
      </g>
     </g>
     <g id="text_16">
      <!-- 17.5 -->
      <g transform="translate(32.491875 62.705885) scale(0.22 -0.22)">
       <use xlink:href="#DejaVuSans-31"/>
       <use xlink:href="#DejaVuSans-37" x="63.623047"/>
       <use xlink:href="#DejaVuSans-2e" x="127.246094"/>
       <use xlink:href="#DejaVuSans-35" x="159.033203"/>
      </g>
     </g>
    </g>
    <g id="text_17">
     <!-- Firing Rate -->
     <g transform="translate(23.916563 258.410969) rotate(-90) scale(0.22 -0.22)">
      <defs>
       <path id="DejaVuSans-46" d="M 628 4666 
L 3309 4666 
L 3309 4134 
L 1259 4134 
L 1259 2759 
L 3109 2759 
L 3109 2228 
L 1259 2228 
L 1259 0 
L 628 0 
L 628 4666 
z
" transform="scale(0.015625)"/>
       <path id="DejaVuSans-72" d="M 2631 2963 
Q 2534 3019 2420 3045 
Q 2306 3072 2169 3072 
Q 1681 3072 1420 2755 
Q 1159 2438 1159 1844 
L 1159 0 
L 581 0 
L 581 3500 
L 1159 3500 
L 1159 2956 
Q 1341 3275 1631 3429 
Q 1922 3584 2338 3584 
Q 2397 3584 2469 3576 
Q 2541 3569 2628 3553 
L 2631 2963 
z
" transform="scale(0.015625)"/>
       <path id="DejaVuSans-67" d="M 2906 1791 
Q 2906 2416 2648 2759 
Q 2391 3103 1925 3103 
Q 1463 3103 1205 2759 
Q 947 2416 947 1791 
Q 947 1169 1205 825 
Q 1463 481 1925 481 
Q 2391 481 2648 825 
Q 2906 1169 2906 1791 
z
M 3481 434 
Q 3481 -459 3084 -895 
Q 2688 -1331 1869 -1331 
Q 1566 -1331 1297 -1286 
Q 1028 -1241 775 -1147 
L 775 -588 
Q 1028 -725 1275 -790 
Q 1522 -856 1778 -856 
Q 2344 -856 2625 -561 
Q 2906 -266 2906 331 
L 2906 616 
Q 2728 306 2450 153 
Q 2172 0 1784 0 
Q 1141 0 747 490 
Q 353 981 353 1791 
Q 353 2603 747 3093 
Q 1141 3584 1784 3584 
Q 2172 3584 2450 3431 
Q 2728 3278 2906 2969 
L 2906 3500 
L 3481 3500 
L 3481 434 
z
" transform="scale(0.015625)"/>
       <path id="DejaVuSans-52" d="M 2841 2188 
Q 3044 2119 3236 1894 
Q 3428 1669 3622 1275 
L 4263 0 
L 3584 0 
L 2988 1197 
Q 2756 1666 2539 1819 
Q 2322 1972 1947 1972 
L 1259 1972 
L 1259 0 
L 628 0 
L 628 4666 
L 2053 4666 
Q 2853 4666 3247 4331 
Q 3641 3997 3641 3322 
Q 3641 2881 3436 2590 
Q 3231 2300 2841 2188 
z
M 1259 4147 
L 1259 2491 
L 2053 2491 
Q 2509 2491 2742 2702 
Q 2975 2913 2975 3322 
Q 2975 3731 2742 3939 
Q 2509 4147 2053 4147 
L 1259 4147 
z
" transform="scale(0.015625)"/>
       <path id="DejaVuSans-61" d="M 2194 1759 
Q 1497 1759 1228 1600 
Q 959 1441 959 1056 
Q 959 750 1161 570 
Q 1363 391 1709 391 
Q 2188 391 2477 730 
Q 2766 1069 2766 1631 
L 2766 1759 
L 2194 1759 
z
M 3341 1997 
L 3341 0 
L 2766 0 
L 2766 531 
Q 2569 213 2275 61 
Q 1981 -91 1556 -91 
Q 1019 -91 701 211 
Q 384 513 384 1019 
Q 384 1609 779 1909 
Q 1175 2209 1959 2209 
L 2766 2209 
L 2766 2266 
Q 2766 2663 2505 2880 
Q 2244 3097 1772 3097 
Q 1472 3097 1187 3025 
Q 903 2953 641 2809 
L 641 3341 
Q 956 3463 1253 3523 
Q 1550 3584 1831 3584 
Q 2591 3584 2966 3190 
Q 3341 2797 3341 1997 
z
" transform="scale(0.015625)"/>
       <path id="DejaVuSans-74" d="M 1172 4494 
L 1172 3500 
L 2356 3500 
L 2356 3053 
L 1172 3053 
L 1172 1153 
Q 1172 725 1289 603 
Q 1406 481 1766 481 
L 2356 481 
L 2356 0 
L 1766 0 
Q 1100 0 847 248 
Q 594 497 594 1153 
L 594 3053 
L 172 3053 
L 172 3500 
L 594 3500 
L 594 4494 
L 1172 4494 
z
" transform="scale(0.015625)"/>
      </defs>
      <use xlink:href="#DejaVuSans-46"/>
      <use xlink:href="#DejaVuSans-69" x="50.269531"/>
      <use xlink:href="#DejaVuSans-72" x="78.052734"/>
      <use xlink:href="#DejaVuSans-69" x="119.166016"/>
      <use xlink:href="#DejaVuSans-6e" x="146.949219"/>
      <use xlink:href="#DejaVuSans-67" x="210.328125"/>
      <use xlink:href="#DejaVuSans-20" x="273.804688"/>
      <use xlink:href="#DejaVuSans-52" x="305.591797"/>
      <use xlink:href="#DejaVuSans-61" x="372.824219"/>
      <use xlink:href="#DejaVuSans-74" x="434.103516"/>
      <use xlink:href="#DejaVuSans-65" x="473.3125"/>
     </g>
    </g>
   </g>
   <g id="line2d_16">
    <path d="M 118.912614 284.966456 
L 126.618022 258.09824 
L 134.323431 258.09824 
L 142.028839 290.937171 
L 149.734248 299.893243 
L 157.439656 302.8786 
L 165.145065 293.922528 
L 172.850473 287.951813 
L 180.555882 276.010384 
L 188.26129 258.09824 
L 195.966699 276.010384 
L 203.672107 278.995741 
L 211.377516 252.127526 
L 219.082924 252.127526 
L 226.788333 287.951813 
L 234.493741 234.215382 
L 242.19915 201.376452 
L 249.904558 237.200739 
L 257.609967 225.25931 
L 265.315375 240.186097 
L 273.020784 287.951813 
L 280.726192 273.025027 
L 288.431601 222.273953 
L 296.137009 246.156811 
L 303.842418 276.010384 
L 311.547827 255.112883 
L 319.253235 243.171454 
L 326.958644 281.981099 
L 334.664052 317.805386 
L 342.369461 317.805386 
L 350.074869 293.922528 
L 357.780278 278.995741 
L 365.485686 276.010384 
L 373.191095 249.142168 
L 380.896503 210.332523 
L 388.601912 213.317881 
L 396.30732 228.244667 
L 404.012729 255.112883 
L 411.718137 276.010384 
L 419.423546 255.112883 
L 427.128954 234.215382 
L 434.834363 225.25931 
L 442.539771 243.171454 
L 450.24518 210.332523 
L 457.950588 213.317881 
L 465.655997 276.010384 
L 473.361405 258.09824 
L 481.066814 210.332523 
L 488.772222 204.361809 
L 496.477631 189.435022 
L 504.183039 138.683948 
L 511.888448 135.698591 
L 519.593856 180.47895 
L 527.299265 213.317881 
L 535.004673 225.25931 
L 542.710082 228.244667 
L 550.415491 198.391094 
L 558.120899 141.669305 
L 565.826308 114.80109 
L 573.531716 138.683948 
L 581.237125 165.552164 
L 588.942533 180.47895 
L 596.647942 195.405737 
L 604.35335 213.317881 
L 612.058759 207.347166 
L 619.764167 180.47895 
L 627.469576 186.449665 
L 635.174984 216.303238 
L 642.880393 210.332523 
L 650.585801 177.493593 
L 658.29121 177.493593 
L 665.996618 192.42038 
L 673.702027 156.596092 
L 681.407435 147.64002 
L 689.112844 177.493593 
L 696.818252 165.552164 
L 704.523661 132.713233 
L 712.229069 150.625377 
L 719.934478 174.508236 
L 727.639886 153.610735 
" clip-path="url(#p3aa9d6b24a)" style="fill: none; stroke: #003074; stroke-width: 3; stroke-linecap: square"/>
   </g>
   <g id="line2d_17">
    <path d="M 118.912614 186.449665 
L 126.618022 240.186097 
L 134.323431 222.273953 
L 142.028839 159.581449 
L 149.734248 213.317881 
L 157.439656 258.09824 
L 165.145065 204.361809 
L 172.850473 195.405737 
L 180.555882 150.625377 
L 188.26129 132.713233 
L 195.966699 177.493593 
L 203.672107 195.405737 
L 211.377516 150.625377 
L 219.082924 141.669305 
L 226.788333 213.317881 
L 234.493741 195.405737 
L 242.19915 150.625377 
L 249.904558 195.405737 
L 257.609967 258.09824 
L 265.315375 267.054312 
L 273.020784 222.273953 
L 280.726192 168.537521 
L 288.431601 168.537521 
L 296.137009 204.361809 
L 303.842418 186.449665 
L 311.547827 222.273953 
L 319.253235 258.09824 
L 326.958644 240.186097 
L 334.664052 258.09824 
L 342.369461 276.010384 
L 350.074869 284.966456 
L 357.780278 204.361809 
L 365.485686 186.449665 
L 373.191095 249.142168 
L 380.896503 258.09824 
L 388.601912 276.010384 
L 396.30732 267.054312 
L 404.012729 267.054312 
L 411.718137 258.09824 
L 419.423546 249.142168 
L 427.128954 249.142168 
L 434.834363 204.361809 
L 442.539771 177.493593 
L 450.24518 168.537521 
L 457.950588 141.669305 
L 465.655997 141.669305 
L 473.361405 168.537521 
L 481.066814 195.405737 
L 488.772222 195.405737 
L 496.477631 240.186097 
L 504.183039 284.966456 
L 511.888448 195.405737 
L 519.593856 168.537521 
L 527.299265 222.273953 
L 535.004673 240.186097 
L 542.710082 258.09824 
L 550.415491 258.09824 
L 558.120899 168.537521 
L 565.826308 123.757162 
L 573.531716 177.493593 
L 581.237125 213.317881 
L 588.942533 213.317881 
L 596.647942 186.449665 
L 604.35335 213.317881 
L 612.058759 240.186097 
L 619.764167 258.09824 
L 627.469576 276.010384 
L 635.174984 213.317881 
L 642.880393 213.317881 
L 650.585801 293.922528 
L 658.29121 293.922528 
L 665.996618 240.186097 
L 673.702027 249.142168 
L 681.407435 276.010384 
L 689.112844 284.966456 
L 696.818252 284.966456 
L 704.523661 258.09824 
L 712.229069 204.361809 
L 719.934478 204.361809 
L 727.639886 267.054312 
" clip-path="url(#p3aa9d6b24a)" style="fill: none; stroke: #4d7dc1; stroke-width: 3; stroke-linecap: square"/>
   </g>
   <g id="line2d_18">
    <path d="M 427.128954 365.899875 
L 427.128954 33.259875 
" clip-path="url(#p3aa9d6b24a)" style="fill: none; stroke-dasharray: 5.55,2.4; stroke-dashoffset: 0; stroke: #ff0000; stroke-width: 1.5"/>
   </g>
   <g id="patch_3">
    <path d="M 88.47625 365.899875 
L 88.47625 33.259875 
" style="fill: none; stroke: #000000; stroke-width: 2; stroke-linejoin: miter; stroke-linecap: square"/>
   </g>
   <g id="patch_4">
    <path d="M 88.47625 365.899875 
L 758.07625 365.899875 
" style="fill: none; stroke: #000000; stroke-width: 2; stroke-linejoin: miter; stroke-linecap: square"/>
   </g>
   <g id="text_18">
    <!-- Lineplot of 20240322 Subj 4.3 Unit 101 Comp/Non-comp Win -->
    <g transform="translate(19.729562 27.259875) scale(0.264 -0.264)">
     <defs>
      <path id="DejaVuSans-4c" d="M 628 4666 
L 1259 4666 
L 1259 531 
L 3531 531 
L 3531 0 
L 628 0 
L 628 4666 
z
" transform="scale(0.015625)"/>
      <path id="DejaVuSans-70" d="M 1159 525 
L 1159 -1331 
L 581 -1331 
L 581 3500 
L 1159 3500 
L 1159 2969 
Q 1341 3281 1617 3432 
Q 1894 3584 2278 3584 
Q 2916 3584 3314 3078 
Q 3713 2572 3713 1747 
Q 3713 922 3314 415 
Q 2916 -91 2278 -91 
Q 1894 -91 1617 61 
Q 1341 213 1159 525 
z
M 3116 1747 
Q 3116 2381 2855 2742 
Q 2594 3103 2138 3103 
Q 1681 3103 1420 2742 
Q 1159 2381 1159 1747 
Q 1159 1113 1420 752 
Q 1681 391 2138 391 
Q 2594 391 2855 752 
Q 3116 1113 3116 1747 
z
" transform="scale(0.015625)"/>
      <path id="DejaVuSans-6c" d="M 603 4863 
L 1178 4863 
L 1178 0 
L 603 0 
L 603 4863 
z
" transform="scale(0.015625)"/>
      <path id="DejaVuSans-66" d="M 2375 4863 
L 2375 4384 
L 1825 4384 
Q 1516 4384 1395 4259 
Q 1275 4134 1275 3809 
L 1275 3500 
L 2222 3500 
L 2222 3053 
L 1275 3053 
L 1275 0 
L 697 0 
L 697 3053 
L 147 3053 
L 147 3500 
L 697 3500 
L 697 3744 
Q 697 4328 969 4595 
Q 1241 4863 1831 4863 
L 2375 4863 
z
" transform="scale(0.015625)"/>
      <path id="DejaVuSans-34" d="M 2419 4116 
L 825 1625 
L 2419 1625 
L 2419 4116 
z
M 2253 4666 
L 3047 4666 
L 3047 1625 
L 3713 1625 
L 3713 1100 
L 3047 1100 
L 3047 0 
L 2419 0 
L 2419 1100 
L 313 1100 
L 313 1709 
L 2253 4666 
z
" transform="scale(0.015625)"/>
      <path id="DejaVuSans-33" d="M 2597 2516 
Q 3050 2419 3304 2112 
Q 3559 1806 3559 1356 
Q 3559 666 3084 287 
Q 2609 -91 1734 -91 
Q 1441 -91 1130 -33 
Q 819 25 488 141 
L 488 750 
Q 750 597 1062 519 
Q 1375 441 1716 441 
Q 2309 441 2620 675 
Q 2931 909 2931 1356 
Q 2931 1769 2642 2001 
Q 2353 2234 1838 2234 
L 1294 2234 
L 1294 2753 
L 1863 2753 
Q 2328 2753 2575 2939 
Q 2822 3125 2822 3475 
Q 2822 3834 2567 4026 
Q 2313 4219 1838 4219 
Q 1578 4219 1281 4162 
Q 984 4106 628 3988 
L 628 4550 
Q 988 4650 1302 4700 
Q 1616 4750 1894 4750 
Q 2613 4750 3031 4423 
Q 3450 4097 3450 3541 
Q 3450 3153 3228 2886 
Q 3006 2619 2597 2516 
z
" transform="scale(0.015625)"/>
      <path id="DejaVuSans-53" d="M 3425 4513 
L 3425 3897 
Q 3066 4069 2747 4153 
Q 2428 4238 2131 4238 
Q 1616 4238 1336 4038 
Q 1056 3838 1056 3469 
Q 1056 3159 1242 3001 
Q 1428 2844 1947 2747 
L 2328 2669 
Q 3034 2534 3370 2195 
Q 3706 1856 3706 1288 
Q 3706 609 3251 259 
Q 2797 -91 1919 -91 
Q 1588 -91 1214 -16 
Q 841 59 441 206 
L 441 856 
Q 825 641 1194 531 
Q 1563 422 1919 422 
Q 2459 422 2753 634 
Q 3047 847 3047 1241 
Q 3047 1584 2836 1778 
Q 2625 1972 2144 2069 
L 1759 2144 
Q 1053 2284 737 2584 
Q 422 2884 422 3419 
Q 422 4038 858 4394 
Q 1294 4750 2059 4750 
Q 2388 4750 2728 4690 
Q 3069 4631 3425 4513 
z
" transform="scale(0.015625)"/>
      <path id="DejaVuSans-75" d="M 544 1381 
L 544 3500 
L 1119 3500 
L 1119 1403 
Q 1119 906 1312 657 
Q 1506 409 1894 409 
Q 2359 409 2629 706 
Q 2900 1003 2900 1516 
L 2900 3500 
L 3475 3500 
L 3475 0 
L 2900 0 
L 2900 538 
Q 2691 219 2414 64 
Q 2138 -91 1772 -91 
Q 1169 -91 856 284 
Q 544 659 544 1381 
z
M 1991 3584 
L 1991 3584 
z
" transform="scale(0.015625)"/>
      <path id="DejaVuSans-62" d="M 3116 1747 
Q 3116 2381 2855 2742 
Q 2594 3103 2138 3103 
Q 1681 3103 1420 2742 
Q 1159 2381 1159 1747 
Q 1159 1113 1420 752 
Q 1681 391 2138 391 
Q 2594 391 2855 752 
Q 3116 1113 3116 1747 
z
M 1159 2969 
Q 1341 3281 1617 3432 
Q 1894 3584 2278 3584 
Q 2916 3584 3314 3078 
Q 3713 2572 3713 1747 
Q 3713 922 3314 415 
Q 2916 -91 2278 -91 
Q 1894 -91 1617 61 
Q 1341 213 1159 525 
L 1159 0 
L 581 0 
L 581 4863 
L 1159 4863 
L 1159 2969 
z
" transform="scale(0.015625)"/>
      <path id="DejaVuSans-6a" d="M 603 3500 
L 1178 3500 
L 1178 -63 
Q 1178 -731 923 -1031 
Q 669 -1331 103 -1331 
L -116 -1331 
L -116 -844 
L 38 -844 
Q 366 -844 484 -692 
Q 603 -541 603 -63 
L 603 3500 
z
M 603 4863 
L 1178 4863 
L 1178 4134 
L 603 4134 
L 603 4863 
z
" transform="scale(0.015625)"/>
      <path id="DejaVuSans-55" d="M 556 4666 
L 1191 4666 
L 1191 1831 
Q 1191 1081 1462 751 
Q 1734 422 2344 422 
Q 2950 422 3222 751 
Q 3494 1081 3494 1831 
L 3494 4666 
L 4128 4666 
L 4128 1753 
Q 4128 841 3676 375 
Q 3225 -91 2344 -91 
Q 1459 -91 1007 375 
Q 556 841 556 1753 
L 556 4666 
z
" transform="scale(0.015625)"/>
      <path id="DejaVuSans-43" d="M 4122 4306 
L 4122 3641 
Q 3803 3938 3442 4084 
Q 3081 4231 2675 4231 
Q 1875 4231 1450 3742 
Q 1025 3253 1025 2328 
Q 1025 1406 1450 917 
Q 1875 428 2675 428 
Q 3081 428 3442 575 
Q 3803 722 4122 1019 
L 4122 359 
Q 3791 134 3420 21 
Q 3050 -91 2638 -91 
Q 1578 -91 968 557 
Q 359 1206 359 2328 
Q 359 3453 968 4101 
Q 1578 4750 2638 4750 
Q 3056 4750 3426 4639 
Q 3797 4528 4122 4306 
z
" transform="scale(0.015625)"/>
      <path id="DejaVuSans-2f" d="M 1625 4666 
L 2156 4666 
L 531 -594 
L 0 -594 
L 1625 4666 
z
" transform="scale(0.015625)"/>
      <path id="DejaVuSans-4e" d="M 628 4666 
L 1478 4666 
L 3547 763 
L 3547 4666 
L 4159 4666 
L 4159 0 
L 3309 0 
L 1241 3903 
L 1241 0 
L 628 0 
L 628 4666 
z
" transform="scale(0.015625)"/>
      <path id="DejaVuSans-2d" d="M 313 2009 
L 1997 2009 
L 1997 1497 
L 313 1497 
L 313 2009 
z
" transform="scale(0.015625)"/>
      <path id="DejaVuSans-57" d="M 213 4666 
L 850 4666 
L 1831 722 
L 2809 4666 
L 3519 4666 
L 4500 722 
L 5478 4666 
L 6119 4666 
L 4947 0 
L 4153 0 
L 3169 4050 
L 2175 0 
L 1381 0 
L 213 4666 
z
" transform="scale(0.015625)"/>
     </defs>
     <use xlink:href="#DejaVuSans-4c"/>
     <use xlink:href="#DejaVuSans-69" x="55.712891"/>
     <use xlink:href="#DejaVuSans-6e" x="83.496094"/>
     <use xlink:href="#DejaVuSans-65" x="146.875"/>
     <use xlink:href="#DejaVuSans-70" x="208.398438"/>
     <use xlink:href="#DejaVuSans-6c" x="271.875"/>
     <use xlink:href="#DejaVuSans-6f" x="299.658203"/>
     <use xlink:href="#DejaVuSans-74" x="360.839844"/>
     <use xlink:href="#DejaVuSans-20" x="400.048828"/>
     <use xlink:href="#DejaVuSans-6f" x="431.835938"/>
     <use xlink:href="#DejaVuSans-66" x="493.017578"/>
     <use xlink:href="#DejaVuSans-20" x="528.222656"/>
     <use xlink:href="#DejaVuSans-32" x="560.009766"/>
     <use xlink:href="#DejaVuSans-30" x="623.632812"/>
     <use xlink:href="#DejaVuSans-32" x="687.255859"/>
     <use xlink:href="#DejaVuSans-34" x="750.878906"/>
     <use xlink:href="#DejaVuSans-30" x="814.501953"/>
     <use xlink:href="#DejaVuSans-33" x="878.125"/>
     <use xlink:href="#DejaVuSans-32" x="941.748047"/>
     <use xlink:href="#DejaVuSans-32" x="1005.371094"/>
     <use xlink:href="#DejaVuSans-20" x="1068.994141"/>
     <use xlink:href="#DejaVuSans-53" x="1100.78125"/>
     <use xlink:href="#DejaVuSans-75" x="1164.257812"/>
     <use xlink:href="#DejaVuSans-62" x="1227.636719"/>
     <use xlink:href="#DejaVuSans-6a" x="1291.113281"/>
     <use xlink:href="#DejaVuSans-20" x="1318.896484"/>
     <use xlink:href="#DejaVuSans-34" x="1350.683594"/>
     <use xlink:href="#DejaVuSans-2e" x="1414.306641"/>
     <use xlink:href="#DejaVuSans-33" x="1446.09375"/>
     <use xlink:href="#DejaVuSans-20" x="1509.716797"/>
     <use xlink:href="#DejaVuSans-55" x="1541.503906"/>
     <use xlink:href="#DejaVuSans-6e" x="1614.697266"/>
     <use xlink:href="#DejaVuSans-69" x="1678.076172"/>
     <use xlink:href="#DejaVuSans-74" x="1705.859375"/>
     <use xlink:href="#DejaVuSans-20" x="1745.068359"/>
     <use xlink:href="#DejaVuSans-31" x="1776.855469"/>
     <use xlink:href="#DejaVuSans-30" x="1840.478516"/>
     <use xlink:href="#DejaVuSans-31" x="1904.101562"/>
     <use xlink:href="#DejaVuSans-20" x="1967.724609"/>
     <use xlink:href="#DejaVuSans-43" x="1999.511719"/>
     <use xlink:href="#DejaVuSans-6f" x="2069.335938"/>
     <use xlink:href="#DejaVuSans-6d" x="2130.517578"/>
     <use xlink:href="#DejaVuSans-70" x="2227.929688"/>
     <use xlink:href="#DejaVuSans-2f" x="2291.40625"/>
     <use xlink:href="#DejaVuSans-4e" x="2325.097656"/>
     <use xlink:href="#DejaVuSans-6f" x="2399.902344"/>
     <use xlink:href="#DejaVuSans-6e" x="2461.083984"/>
     <use xlink:href="#DejaVuSans-2d" x="2524.462891"/>
     <use xlink:href="#DejaVuSans-63" x="2560.546875"/>
     <use xlink:href="#DejaVuSans-6f" x="2615.527344"/>
     <use xlink:href="#DejaVuSans-6d" x="2676.708984"/>
     <use xlink:href="#DejaVuSans-70" x="2774.121094"/>
     <use xlink:href="#DejaVuSans-20" x="2837.597656"/>
     <use xlink:href="#DejaVuSans-57" x="2869.384766"/>
     <use xlink:href="#DejaVuSans-69" x="2966.011719"/>
     <use xlink:href="#DejaVuSans-6e" x="2993.794922"/>
    </g>
   </g>
  </g>
 </g>
 <defs>
  <clipPath id="p3aa9d6b24a">
   <rect x="88.47625" y="33.259875" width="669.6" height="332.64"/>
  </clipPath>
 </defs>
</svg>
