<?xml version="1.0" encoding="utf-8" standalone="no"?>
<!DOCTYPE svg PUBLIC "-//W3C//DTD SVG 1.1//EN"
  "http://www.w3.org/Graphics/SVG/1.1/DTD/svg11.dtd">
<svg xmlns:xlink="http://www.w3.org/1999/xlink" width="880.39275pt" height="485.00234pt" viewBox="0 0 880.39275 485.00234" xmlns="http://www.w3.org/2000/svg" version="1.1">
 <metadata>
  <rdf:RDF xmlns:dc="http://purl.org/dc/elements/1.1/" xmlns:cc="http://creativecommons.org/ns#" xmlns:rdf="http://www.w3.org/1999/02/22-rdf-syntax-ns#">
   <cc:Work>
    <dc:type rdf:resource="http://purl.org/dc/dcmitype/StillImage"/>
    <dc:date>2024-07-30T18:37:30.410511</dc:date>
    <dc:format>image/svg+xml</dc:format>
    <dc:creator>
     <cc:Agent>
      <dc:title>Matplotlib v3.8.4, https://matplotlib.org/</dc:title>
     </cc:Agent>
    </dc:creator>
   </cc:Work>
  </rdf:RDF>
 </metadata>
 <defs>
  <style type="text/css">*{stroke-linejoin: round; stroke-linecap: butt}</style>
 </defs>
 <g id="figure_1">
  <g id="patch_1">
   <path d="M 0 485.00234 
L 880.39275 485.00234 
L 880.39275 0 
L 0 0 
z
" style="fill: #ffffff"/>
  </g>
  <g id="axes_1">
   <g id="patch_2">
    <path d="M 440.196375 86.009298 
C 423.097358 77.338649 404.30851 72.507918 385.147835 71.855973 
C 365.987159 71.204028 346.913412 74.746477 329.264583 82.234825 
C 311.615753 89.723172 295.8144 100.978128 282.968961 115.210176 
C 270.123521 129.442224 260.541547 146.310613 254.895197 164.632056 
C 249.248848 182.953499 247.673311 202.289332 250.279107 221.283183 
C 252.884904 240.277033 259.609644 258.474138 269.981601 274.598004 
C 280.353557 290.721869 294.124397 304.386449 310.328122 314.633196 
C 326.531847 324.879943 344.780497 331.463524 363.793962 333.922113 
C 362.460907 321.219794 363.313335 308.382481 366.31421 295.967944 
C 369.315085 283.553408 374.420305 271.744091 381.408054 261.053098 
C 366.279636 230.010448 363.96022 194.2277 374.95455 161.491789 
C 385.94888 128.755877 409.397062 101.627157 440.196375 86.009298 
" clip-path="url(#pc267078494)" style="fill: #792910; opacity: 0.9"/>
   </g>
   <g id="patch_3">
    <path d="M 440.196375 86.009298 
C 463.880799 98.019306 483.384891 116.920802 496.132036 140.216779 
C 508.879182 163.512755 514.282198 190.130109 511.627313 216.552521 
C 530.555302 223.105692 547.379973 234.624562 560.335989 249.900507 
C 573.292004 265.176452 581.909804 283.655831 585.28516 303.399686 
C 609.741663 282.474687 625.692521 253.288313 630.096941 221.404505 
C 634.501361 189.520697 627.060474 157.102994 609.192773 130.331341 
C 591.325072 103.559689 564.243004 84.25073 533.109357 76.085427 
C 501.97571 67.920123 468.903119 71.452548 440.196375 86.009298 
" clip-path="url(#pc267078494)" style="fill: #0045a6; opacity: 0.9"/>
   </g>
   <g id="patch_4">
    <path d="M 440.196375 86.009298 
C 409.397062 101.627157 385.94888 128.755877 374.95455 161.491789 
C 363.96022 194.2277 366.279636 230.010448 381.408054 261.053098 
C 395.046188 240.187267 415.27596 224.467701 438.864156 216.40677 
C 462.452352 208.34584 488.071599 208.397158 511.627313 216.552521 
C 514.282198 190.130109 508.879182 163.512755 496.132036 140.216779 
C 483.384891 116.920802 463.880799 98.019306 440.196375 86.009298 
" clip-path="url(#pc267078494)" style="fill: #554d7f; opacity: 0.9"/>
   </g>
   <g id="patch_5">
    <path d="M 363.793962 333.922113 
C 365.358807 348.83309 369.905873 363.278346 377.164214 376.397129 
C 384.422555 389.515912 394.24508 401.04237 406.046493 410.289673 
C 417.847905 419.536977 431.389051 426.31773 445.86305 430.227886 
C 460.337049 434.138043 475.450586 435.098363 490.303089 433.051625 
C 505.155591 431.004887 519.446074 425.992568 532.323006 418.313337 
C 545.199938 410.634106 556.402369 400.443583 565.262779 388.348993 
C 574.123188 376.254403 580.462019 362.500841 583.901559 347.907845 
C 587.341099 333.314849 587.811645 318.178145 585.28516 303.399686 
C 565.526409 320.305284 541.193697 330.981797 515.374287 334.074618 
C 489.554877 337.16744 463.388954 332.539991 440.196375 320.77939 
C 428.477347 326.721929 415.93421 330.876168 402.984793 333.103724 
C 390.035377 335.331279 376.825082 335.607139 363.793962 333.922113 
" clip-path="url(#pc267078494)" style="fill: #ffaf00; opacity: 0.9"/>
   </g>
   <g id="patch_6">
    <path d="M 363.793962 333.922113 
C 376.825082 335.607139 390.035377 335.331279 402.984793 333.103724 
C 415.93421 330.876168 428.477347 326.721929 440.196375 320.77939 
C 427.490612 314.336492 415.91479 305.873216 405.921413 295.720395 
C 395.928037 285.567574 387.649041 273.859247 381.408054 261.053098 
C 374.420305 271.744091 369.315085 283.553408 366.31421 295.967944 
C 363.313335 308.382481 362.460907 321.219794 363.793962 333.922113 
" clip-path="url(#pc267078494)" style="fill: #ff970b; opacity: 0.9"/>
   </g>
   <g id="patch_7">
    <path d="M 511.627313 216.552521 
C 509.419909 238.521429 501.719362 259.585702 489.237389 277.798497 
C 476.755416 296.011291 459.888784 310.793671 440.196375 320.77939 
C 463.388954 332.539991 489.554877 337.16744 515.374287 334.074618 
C 541.193697 330.981797 565.526409 320.305284 585.28516 303.399686 
C 581.909804 283.655831 573.292004 265.176452 560.335989 249.900507 
C 547.379973 234.624562 530.555302 223.105692 511.627313 216.552521 
" clip-path="url(#pc267078494)" style="fill: #b2ab74; opacity: 0.9"/>
   </g>
   <g id="patch_8">
    <path d="M 381.408054 261.053098 
C 387.649041 273.859247 395.928037 285.567574 405.921413 295.720395 
C 415.91479 305.873216 427.490612 314.336492 440.196375 320.77939 
C 459.888784 310.793671 476.755416 296.011291 489.237389 277.798497 
C 501.719362 259.585702 509.419909 238.521429 511.627313 216.552521 
C 488.071599 208.397158 462.452352 208.34584 438.864156 216.40677 
C 415.27596 224.467701 395.046188 240.187267 381.408054 261.053098 
" clip-path="url(#pc267078494)" style="fill: #967249; opacity: 0.9"/>
   </g>
   <g id="text_1">
    <!-- 9 -->
    <g style="fill: #ffffff" transform="translate(291.099427 187.195806) scale(0.28 -0.28)">
     <defs>
      <path id="DejaVuSans-Bold-39" d="M 641 103 
L 641 966 
Q 928 831 1190 764 
Q 1453 697 1709 697 
Q 2247 697 2547 995 
Q 2847 1294 2900 1881 
Q 2688 1725 2447 1647 
Q 2206 1569 1925 1569 
Q 1209 1569 770 1986 
Q 331 2403 331 3084 
Q 331 3838 820 4291 
Q 1309 4744 2131 4744 
Q 3044 4744 3544 4128 
Q 4044 3513 4044 2388 
Q 4044 1231 3459 570 
Q 2875 -91 1856 -91 
Q 1528 -91 1228 -42 
Q 928 6 641 103 
z
M 2125 2350 
Q 2441 2350 2600 2554 
Q 2759 2759 2759 3169 
Q 2759 3575 2600 3781 
Q 2441 3988 2125 3988 
Q 1809 3988 1650 3781 
Q 1491 3575 1491 3169 
Q 1491 2759 1650 2554 
Q 1809 2350 2125 2350 
z
" transform="scale(0.015625)"/>
     </defs>
     <use xlink:href="#DejaVuSans-Bold-39"/>
    </g>
   </g>
   <g id="text_2">
    <!-- 7 -->
    <g style="fill: #ffffff" transform="translate(563.100211 165.043952) scale(0.28 -0.28)">
     <defs>
      <path id="DejaVuSans-Bold-37" d="M 428 4666 
L 3944 4666 
L 3944 3988 
L 2125 0 
L 953 0 
L 2675 3781 
L 428 3781 
L 428 4666 
z
" transform="scale(0.015625)"/>
     </defs>
     <use xlink:href="#DejaVuSans-Bold-37"/>
    </g>
   </g>
   <g id="text_3">
    <!-- 5 -->
    <g style="fill: #ffffff" transform="translate(421.635815 180.78347) scale(0.28 -0.28)">
     <defs>
      <path id="DejaVuSans-Bold-35" d="M 678 4666 
L 3669 4666 
L 3669 3781 
L 1638 3781 
L 1638 3059 
Q 1775 3097 1914 3117 
Q 2053 3138 2203 3138 
Q 3056 3138 3531 2711 
Q 4006 2284 4006 1522 
Q 4006 766 3489 337 
Q 2972 -91 2053 -91 
Q 1656 -91 1267 -14 
Q 878 63 494 219 
L 494 1166 
Q 875 947 1217 837 
Q 1559 728 1863 728 
Q 2300 728 2551 942 
Q 2803 1156 2803 1522 
Q 2803 1891 2551 2103 
Q 2300 2316 1863 2316 
Q 1603 2316 1309 2248 
Q 1016 2181 678 2041 
L 678 4666 
z
" transform="scale(0.015625)"/>
     </defs>
     <use xlink:href="#DejaVuSans-Bold-35"/>
    </g>
   </g>
   <g id="text_4">
    <!-- 6 -->
    <g style="fill: #ffffff" transform="translate(476.005622 405.393857) scale(0.28 -0.28)">
     <defs>
      <path id="DejaVuSans-Bold-36" d="M 2316 2303 
Q 2000 2303 1842 2098 
Q 1684 1894 1684 1484 
Q 1684 1075 1842 870 
Q 2000 666 2316 666 
Q 2634 666 2792 870 
Q 2950 1075 2950 1484 
Q 2950 1894 2792 2098 
Q 2634 2303 2316 2303 
z
M 3803 4544 
L 3803 3681 
Q 3506 3822 3243 3889 
Q 2981 3956 2731 3956 
Q 2194 3956 1894 3657 
Q 1594 3359 1544 2772 
Q 1750 2925 1990 3001 
Q 2231 3078 2516 3078 
Q 3231 3078 3670 2659 
Q 4109 2241 4109 1563 
Q 4109 813 3618 361 
Q 3128 -91 2303 -91 
Q 1394 -91 895 523 
Q 397 1138 397 2266 
Q 397 3422 980 4083 
Q 1563 4744 2578 4744 
Q 2900 4744 3203 4694 
Q 3506 4644 3803 4544 
z
" transform="scale(0.015625)"/>
     </defs>
     <use xlink:href="#DejaVuSans-Bold-36"/>
    </g>
   </g>
   <g id="text_5">
    <!-- 1 -->
    <g style="fill: #ffffff" transform="translate(381.239906 315.118943) scale(0.28 -0.28)">
     <defs>
      <path id="DejaVuSans-Bold-31" d="M 750 831 
L 1813 831 
L 1813 3847 
L 722 3622 
L 722 4441 
L 1806 4666 
L 2950 4666 
L 2950 831 
L 4013 831 
L 4013 0 
L 750 0 
L 750 831 
z
" transform="scale(0.015625)"/>
     </defs>
     <use xlink:href="#DejaVuSans-Bold-31"/>
    </g>
   </g>
   <g id="text_6">
    <!-- 3 -->
    <g style="fill: #ffffff" transform="translate(512.364989 296.748617) scale(0.28 -0.28)">
     <defs>
      <path id="DejaVuSans-Bold-33" d="M 2981 2516 
Q 3453 2394 3698 2092 
Q 3944 1791 3944 1325 
Q 3944 631 3412 270 
Q 2881 -91 1863 -91 
Q 1503 -91 1142 -33 
Q 781 25 428 141 
L 428 1069 
Q 766 900 1098 814 
Q 1431 728 1753 728 
Q 2231 728 2486 893 
Q 2741 1059 2741 1369 
Q 2741 1688 2480 1852 
Q 2219 2016 1709 2016 
L 1228 2016 
L 1228 2791 
L 1734 2791 
Q 2188 2791 2409 2933 
Q 2631 3075 2631 3366 
Q 2631 3634 2415 3781 
Q 2200 3928 1806 3928 
Q 1516 3928 1219 3862 
Q 922 3797 628 3669 
L 628 4550 
Q 984 4650 1334 4700 
Q 1684 4750 2022 4750 
Q 2931 4750 3382 4451 
Q 3834 4153 3834 3553 
Q 3834 3144 3618 2883 
Q 3403 2622 2981 2516 
z
" transform="scale(0.015625)"/>
     </defs>
     <use xlink:href="#DejaVuSans-Bold-33"/>
    </g>
   </g>
   <g id="text_7">
    <!-- 3 -->
    <g style="fill: #ffffff" transform="translate(438.904038 262.078772) scale(0.28 -0.28)">
     <use xlink:href="#DejaVuSans-Bold-33"/>
    </g>
   </g>
   <g id="text_8">
    <!-- Lose -->
    <g transform="translate(237.994474 71.779853) scale(0.336 -0.336)">
     <defs>
      <path id="DejaVuSans-4c" d="M 628 4666 
L 1259 4666 
L 1259 531 
L 3531 531 
L 3531 0 
L 628 0 
L 628 4666 
z
" transform="scale(0.015625)"/>
      <path id="DejaVuSans-6f" d="M 1959 3097 
Q 1497 3097 1228 2736 
Q 959 2375 959 1747 
Q 959 1119 1226 758 
Q 1494 397 1959 397 
Q 2419 397 2687 759 
Q 2956 1122 2956 1747 
Q 2956 2369 2687 2733 
Q 2419 3097 1959 3097 
z
M 1959 3584 
Q 2709 3584 3137 3096 
Q 3566 2609 3566 1747 
Q 3566 888 3137 398 
Q 2709 -91 1959 -91 
Q 1206 -91 779 398 
Q 353 888 353 1747 
Q 353 2609 779 3096 
Q 1206 3584 1959 3584 
z
" transform="scale(0.015625)"/>
      <path id="DejaVuSans-73" d="M 2834 3397 
L 2834 2853 
Q 2591 2978 2328 3040 
Q 2066 3103 1784 3103 
Q 1356 3103 1142 2972 
Q 928 2841 928 2578 
Q 928 2378 1081 2264 
Q 1234 2150 1697 2047 
L 1894 2003 
Q 2506 1872 2764 1633 
Q 3022 1394 3022 966 
Q 3022 478 2636 193 
Q 2250 -91 1575 -91 
Q 1294 -91 989 -36 
Q 684 19 347 128 
L 347 722 
Q 666 556 975 473 
Q 1284 391 1588 391 
Q 1994 391 2212 530 
Q 2431 669 2431 922 
Q 2431 1156 2273 1281 
Q 2116 1406 1581 1522 
L 1381 1569 
Q 847 1681 609 1914 
Q 372 2147 372 2553 
Q 372 3047 722 3315 
Q 1072 3584 1716 3584 
Q 2034 3584 2315 3537 
Q 2597 3491 2834 3397 
z
" transform="scale(0.015625)"/>
      <path id="DejaVuSans-65" d="M 3597 1894 
L 3597 1613 
L 953 1613 
Q 991 1019 1311 708 
Q 1631 397 2203 397 
Q 2534 397 2845 478 
Q 3156 559 3463 722 
L 3463 178 
Q 3153 47 2828 -22 
Q 2503 -91 2169 -91 
Q 1331 -91 842 396 
Q 353 884 353 1716 
Q 353 2575 817 3079 
Q 1281 3584 2069 3584 
Q 2775 3584 3186 3129 
Q 3597 2675 3597 1894 
z
M 3022 2063 
Q 3016 2534 2758 2815 
Q 2500 3097 2075 3097 
Q 1594 3097 1305 2825 
Q 1016 2553 972 2059 
L 3022 2063 
z
" transform="scale(0.015625)"/>
     </defs>
     <use xlink:href="#DejaVuSans-4c"/>
     <use xlink:href="#DejaVuSans-6f" x="53.962891"/>
     <use xlink:href="#DejaVuSans-73" x="115.144531"/>
     <use xlink:href="#DejaVuSans-65" x="167.244141"/>
    </g>
   </g>
   <g id="text_9">
    <!-- Win -->
    <g transform="translate(565.527776 71.779853) scale(0.336 -0.336)">
     <defs>
      <path id="DejaVuSans-57" d="M 213 4666 
L 850 4666 
L 1831 722 
L 2809 4666 
L 3519 4666 
L 4500 722 
L 5478 4666 
L 6119 4666 
L 4947 0 
L 4153 0 
L 3169 4050 
L 2175 0 
L 1381 0 
L 213 4666 
z
" transform="scale(0.015625)"/>
      <path id="DejaVuSans-69" d="M 603 3500 
L 1178 3500 
L 1178 0 
L 603 0 
L 603 3500 
z
M 603 4863 
L 1178 4863 
L 1178 4134 
L 603 4134 
L 603 4863 
z
" transform="scale(0.015625)"/>
      <path id="DejaVuSans-6e" d="M 3513 2113 
L 3513 0 
L 2938 0 
L 2938 2094 
Q 2938 2591 2744 2837 
Q 2550 3084 2163 3084 
Q 1697 3084 1428 2787 
Q 1159 2491 1159 1978 
L 1159 0 
L 581 0 
L 581 3500 
L 1159 3500 
L 1159 2956 
Q 1366 3272 1645 3428 
Q 1925 3584 2291 3584 
Q 2894 3584 3203 3211 
Q 3513 2838 3513 2113 
z
" transform="scale(0.015625)"/>
     </defs>
     <use xlink:href="#DejaVuSans-57"/>
     <use xlink:href="#DejaVuSans-69" x="96.626953"/>
     <use xlink:href="#DejaVuSans-6e" x="124.410156"/>
    </g>
   </g>
   <g id="text_10">
    <!-- Alone Rewarded -->
    <g transform="translate(338.701872 470.81459) scale(0.336 -0.336)">
     <defs>
      <path id="DejaVuSans-41" d="M 2188 4044 
L 1331 1722 
L 3047 1722 
L 2188 4044 
z
M 1831 4666 
L 2547 4666 
L 4325 0 
L 3669 0 
L 3244 1197 
L 1141 1197 
L 716 0 
L 50 0 
L 1831 4666 
z
" transform="scale(0.015625)"/>
      <path id="DejaVuSans-6c" d="M 603 4863 
L 1178 4863 
L 1178 0 
L 603 0 
L 603 4863 
z
" transform="scale(0.015625)"/>
      <path id="DejaVuSans-20" transform="scale(0.015625)"/>
      <path id="DejaVuSans-52" d="M 2841 2188 
Q 3044 2119 3236 1894 
Q 3428 1669 3622 1275 
L 4263 0 
L 3584 0 
L 2988 1197 
Q 2756 1666 2539 1819 
Q 2322 1972 1947 1972 
L 1259 1972 
L 1259 0 
L 628 0 
L 628 4666 
L 2053 4666 
Q 2853 4666 3247 4331 
Q 3641 3997 3641 3322 
Q 3641 2881 3436 2590 
Q 3231 2300 2841 2188 
z
M 1259 4147 
L 1259 2491 
L 2053 2491 
Q 2509 2491 2742 2702 
Q 2975 2913 2975 3322 
Q 2975 3731 2742 3939 
Q 2509 4147 2053 4147 
L 1259 4147 
z
" transform="scale(0.015625)"/>
      <path id="DejaVuSans-77" d="M 269 3500 
L 844 3500 
L 1563 769 
L 2278 3500 
L 2956 3500 
L 3675 769 
L 4391 3500 
L 4966 3500 
L 4050 0 
L 3372 0 
L 2619 2869 
L 1863 0 
L 1184 0 
L 269 3500 
z
" transform="scale(0.015625)"/>
      <path id="DejaVuSans-61" d="M 2194 1759 
Q 1497 1759 1228 1600 
Q 959 1441 959 1056 
Q 959 750 1161 570 
Q 1363 391 1709 391 
Q 2188 391 2477 730 
Q 2766 1069 2766 1631 
L 2766 1759 
L 2194 1759 
z
M 3341 1997 
L 3341 0 
L 2766 0 
L 2766 531 
Q 2569 213 2275 61 
Q 1981 -91 1556 -91 
Q 1019 -91 701 211 
Q 384 513 384 1019 
Q 384 1609 779 1909 
Q 1175 2209 1959 2209 
L 2766 2209 
L 2766 2266 
Q 2766 2663 2505 2880 
Q 2244 3097 1772 3097 
Q 1472 3097 1187 3025 
Q 903 2953 641 2809 
L 641 3341 
Q 956 3463 1253 3523 
Q 1550 3584 1831 3584 
Q 2591 3584 2966 3190 
Q 3341 2797 3341 1997 
z
" transform="scale(0.015625)"/>
      <path id="DejaVuSans-72" d="M 2631 2963 
Q 2534 3019 2420 3045 
Q 2306 3072 2169 3072 
Q 1681 3072 1420 2755 
Q 1159 2438 1159 1844 
L 1159 0 
L 581 0 
L 581 3500 
L 1159 3500 
L 1159 2956 
Q 1341 3275 1631 3429 
Q 1922 3584 2338 3584 
Q 2397 3584 2469 3576 
Q 2541 3569 2628 3553 
L 2631 2963 
z
" transform="scale(0.015625)"/>
      <path id="DejaVuSans-64" d="M 2906 2969 
L 2906 4863 
L 3481 4863 
L 3481 0 
L 2906 0 
L 2906 525 
Q 2725 213 2448 61 
Q 2172 -91 1784 -91 
Q 1150 -91 751 415 
Q 353 922 353 1747 
Q 353 2572 751 3078 
Q 1150 3584 1784 3584 
Q 2172 3584 2448 3432 
Q 2725 3281 2906 2969 
z
M 947 1747 
Q 947 1113 1208 752 
Q 1469 391 1925 391 
Q 2381 391 2643 752 
Q 2906 1113 2906 1747 
Q 2906 2381 2643 2742 
Q 2381 3103 1925 3103 
Q 1469 3103 1208 2742 
Q 947 2381 947 1747 
z
" transform="scale(0.015625)"/>
     </defs>
     <use xlink:href="#DejaVuSans-41"/>
     <use xlink:href="#DejaVuSans-6c" x="68.408203"/>
     <use xlink:href="#DejaVuSans-6f" x="96.191406"/>
     <use xlink:href="#DejaVuSans-6e" x="157.373047"/>
     <use xlink:href="#DejaVuSans-65" x="220.751953"/>
     <use xlink:href="#DejaVuSans-20" x="282.275391"/>
     <use xlink:href="#DejaVuSans-52" x="314.0625"/>
     <use xlink:href="#DejaVuSans-65" x="379.044922"/>
     <use xlink:href="#DejaVuSans-77" x="440.568359"/>
     <use xlink:href="#DejaVuSans-61" x="522.355469"/>
     <use xlink:href="#DejaVuSans-72" x="583.634766"/>
     <use xlink:href="#DejaVuSans-64" x="622.998047"/>
     <use xlink:href="#DejaVuSans-65" x="686.474609"/>
     <use xlink:href="#DejaVuSans-64" x="747.998047"/>
    </g>
   </g>
   <g id="text_11">
    <!-- Significant Win/Lose/Rewarded Units (34/257 Units) -->
    <g transform="translate(7.2 32.73075) scale(0.336 -0.336)">
     <defs>
      <path id="DejaVuSans-53" d="M 3425 4513 
L 3425 3897 
Q 3066 4069 2747 4153 
Q 2428 4238 2131 4238 
Q 1616 4238 1336 4038 
Q 1056 3838 1056 3469 
Q 1056 3159 1242 3001 
Q 1428 2844 1947 2747 
L 2328 2669 
Q 3034 2534 3370 2195 
Q 3706 1856 3706 1288 
Q 3706 609 3251 259 
Q 2797 -91 1919 -91 
Q 1588 -91 1214 -16 
Q 841 59 441 206 
L 441 856 
Q 825 641 1194 531 
Q 1563 422 1919 422 
Q 2459 422 2753 634 
Q 3047 847 3047 1241 
Q 3047 1584 2836 1778 
Q 2625 1972 2144 2069 
L 1759 2144 
Q 1053 2284 737 2584 
Q 422 2884 422 3419 
Q 422 4038 858 4394 
Q 1294 4750 2059 4750 
Q 2388 4750 2728 4690 
Q 3069 4631 3425 4513 
z
" transform="scale(0.015625)"/>
      <path id="DejaVuSans-67" d="M 2906 1791 
Q 2906 2416 2648 2759 
Q 2391 3103 1925 3103 
Q 1463 3103 1205 2759 
Q 947 2416 947 1791 
Q 947 1169 1205 825 
Q 1463 481 1925 481 
Q 2391 481 2648 825 
Q 2906 1169 2906 1791 
z
M 3481 434 
Q 3481 -459 3084 -895 
Q 2688 -1331 1869 -1331 
Q 1566 -1331 1297 -1286 
Q 1028 -1241 775 -1147 
L 775 -588 
Q 1028 -725 1275 -790 
Q 1522 -856 1778 -856 
Q 2344 -856 2625 -561 
Q 2906 -266 2906 331 
L 2906 616 
Q 2728 306 2450 153 
Q 2172 0 1784 0 
Q 1141 0 747 490 
Q 353 981 353 1791 
Q 353 2603 747 3093 
Q 1141 3584 1784 3584 
Q 2172 3584 2450 3431 
Q 2728 3278 2906 2969 
L 2906 3500 
L 3481 3500 
L 3481 434 
z
" transform="scale(0.015625)"/>
      <path id="DejaVuSans-66" d="M 2375 4863 
L 2375 4384 
L 1825 4384 
Q 1516 4384 1395 4259 
Q 1275 4134 1275 3809 
L 1275 3500 
L 2222 3500 
L 2222 3053 
L 1275 3053 
L 1275 0 
L 697 0 
L 697 3053 
L 147 3053 
L 147 3500 
L 697 3500 
L 697 3744 
Q 697 4328 969 4595 
Q 1241 4863 1831 4863 
L 2375 4863 
z
" transform="scale(0.015625)"/>
      <path id="DejaVuSans-63" d="M 3122 3366 
L 3122 2828 
Q 2878 2963 2633 3030 
Q 2388 3097 2138 3097 
Q 1578 3097 1268 2742 
Q 959 2388 959 1747 
Q 959 1106 1268 751 
Q 1578 397 2138 397 
Q 2388 397 2633 464 
Q 2878 531 3122 666 
L 3122 134 
Q 2881 22 2623 -34 
Q 2366 -91 2075 -91 
Q 1284 -91 818 406 
Q 353 903 353 1747 
Q 353 2603 823 3093 
Q 1294 3584 2113 3584 
Q 2378 3584 2631 3529 
Q 2884 3475 3122 3366 
z
" transform="scale(0.015625)"/>
      <path id="DejaVuSans-74" d="M 1172 4494 
L 1172 3500 
L 2356 3500 
L 2356 3053 
L 1172 3053 
L 1172 1153 
Q 1172 725 1289 603 
Q 1406 481 1766 481 
L 2356 481 
L 2356 0 
L 1766 0 
Q 1100 0 847 248 
Q 594 497 594 1153 
L 594 3053 
L 172 3053 
L 172 3500 
L 594 3500 
L 594 4494 
L 1172 4494 
z
" transform="scale(0.015625)"/>
      <path id="DejaVuSans-2f" d="M 1625 4666 
L 2156 4666 
L 531 -594 
L 0 -594 
L 1625 4666 
z
" transform="scale(0.015625)"/>
      <path id="DejaVuSans-55" d="M 556 4666 
L 1191 4666 
L 1191 1831 
Q 1191 1081 1462 751 
Q 1734 422 2344 422 
Q 2950 422 3222 751 
Q 3494 1081 3494 1831 
L 3494 4666 
L 4128 4666 
L 4128 1753 
Q 4128 841 3676 375 
Q 3225 -91 2344 -91 
Q 1459 -91 1007 375 
Q 556 841 556 1753 
L 556 4666 
z
" transform="scale(0.015625)"/>
      <path id="DejaVuSans-28" d="M 1984 4856 
Q 1566 4138 1362 3434 
Q 1159 2731 1159 2009 
Q 1159 1288 1364 580 
Q 1569 -128 1984 -844 
L 1484 -844 
Q 1016 -109 783 600 
Q 550 1309 550 2009 
Q 550 2706 781 3412 
Q 1013 4119 1484 4856 
L 1984 4856 
z
" transform="scale(0.015625)"/>
      <path id="DejaVuSans-33" d="M 2597 2516 
Q 3050 2419 3304 2112 
Q 3559 1806 3559 1356 
Q 3559 666 3084 287 
Q 2609 -91 1734 -91 
Q 1441 -91 1130 -33 
Q 819 25 488 141 
L 488 750 
Q 750 597 1062 519 
Q 1375 441 1716 441 
Q 2309 441 2620 675 
Q 2931 909 2931 1356 
Q 2931 1769 2642 2001 
Q 2353 2234 1838 2234 
L 1294 2234 
L 1294 2753 
L 1863 2753 
Q 2328 2753 2575 2939 
Q 2822 3125 2822 3475 
Q 2822 3834 2567 4026 
Q 2313 4219 1838 4219 
Q 1578 4219 1281 4162 
Q 984 4106 628 3988 
L 628 4550 
Q 988 4650 1302 4700 
Q 1616 4750 1894 4750 
Q 2613 4750 3031 4423 
Q 3450 4097 3450 3541 
Q 3450 3153 3228 2886 
Q 3006 2619 2597 2516 
z
" transform="scale(0.015625)"/>
      <path id="DejaVuSans-34" d="M 2419 4116 
L 825 1625 
L 2419 1625 
L 2419 4116 
z
M 2253 4666 
L 3047 4666 
L 3047 1625 
L 3713 1625 
L 3713 1100 
L 3047 1100 
L 3047 0 
L 2419 0 
L 2419 1100 
L 313 1100 
L 313 1709 
L 2253 4666 
z
" transform="scale(0.015625)"/>
      <path id="DejaVuSans-32" d="M 1228 531 
L 3431 531 
L 3431 0 
L 469 0 
L 469 531 
Q 828 903 1448 1529 
Q 2069 2156 2228 2338 
Q 2531 2678 2651 2914 
Q 2772 3150 2772 3378 
Q 2772 3750 2511 3984 
Q 2250 4219 1831 4219 
Q 1534 4219 1204 4116 
Q 875 4013 500 3803 
L 500 4441 
Q 881 4594 1212 4672 
Q 1544 4750 1819 4750 
Q 2544 4750 2975 4387 
Q 3406 4025 3406 3419 
Q 3406 3131 3298 2873 
Q 3191 2616 2906 2266 
Q 2828 2175 2409 1742 
Q 1991 1309 1228 531 
z
" transform="scale(0.015625)"/>
      <path id="DejaVuSans-35" d="M 691 4666 
L 3169 4666 
L 3169 4134 
L 1269 4134 
L 1269 2991 
Q 1406 3038 1543 3061 
Q 1681 3084 1819 3084 
Q 2600 3084 3056 2656 
Q 3513 2228 3513 1497 
Q 3513 744 3044 326 
Q 2575 -91 1722 -91 
Q 1428 -91 1123 -41 
Q 819 9 494 109 
L 494 744 
Q 775 591 1075 516 
Q 1375 441 1709 441 
Q 2250 441 2565 725 
Q 2881 1009 2881 1497 
Q 2881 1984 2565 2268 
Q 2250 2553 1709 2553 
Q 1456 2553 1204 2497 
Q 953 2441 691 2322 
L 691 4666 
z
" transform="scale(0.015625)"/>
      <path id="DejaVuSans-37" d="M 525 4666 
L 3525 4666 
L 3525 4397 
L 1831 0 
L 1172 0 
L 2766 4134 
L 525 4134 
L 525 4666 
z
" transform="scale(0.015625)"/>
      <path id="DejaVuSans-29" d="M 513 4856 
L 1013 4856 
Q 1481 4119 1714 3412 
Q 1947 2706 1947 2009 
Q 1947 1309 1714 600 
Q 1481 -109 1013 -844 
L 513 -844 
Q 928 -128 1133 580 
Q 1338 1288 1338 2009 
Q 1338 2731 1133 3434 
Q 928 4138 513 4856 
z
" transform="scale(0.015625)"/>
     </defs>
     <use xlink:href="#DejaVuSans-53"/>
     <use xlink:href="#DejaVuSans-69" x="63.476562"/>
     <use xlink:href="#DejaVuSans-67" x="91.259766"/>
     <use xlink:href="#DejaVuSans-6e" x="154.736328"/>
     <use xlink:href="#DejaVuSans-69" x="218.115234"/>
     <use xlink:href="#DejaVuSans-66" x="245.898438"/>
     <use xlink:href="#DejaVuSans-69" x="281.103516"/>
     <use xlink:href="#DejaVuSans-63" x="308.886719"/>
     <use xlink:href="#DejaVuSans-61" x="363.867188"/>
     <use xlink:href="#DejaVuSans-6e" x="425.146484"/>
     <use xlink:href="#DejaVuSans-74" x="488.525391"/>
     <use xlink:href="#DejaVuSans-20" x="527.734375"/>
     <use xlink:href="#DejaVuSans-57" x="559.521484"/>
     <use xlink:href="#DejaVuSans-69" x="656.148438"/>
     <use xlink:href="#DejaVuSans-6e" x="683.931641"/>
     <use xlink:href="#DejaVuSans-2f" x="747.310547"/>
     <use xlink:href="#DejaVuSans-4c" x="781.001953"/>
     <use xlink:href="#DejaVuSans-6f" x="834.964844"/>
     <use xlink:href="#DejaVuSans-73" x="896.146484"/>
     <use xlink:href="#DejaVuSans-65" x="948.246094"/>
     <use xlink:href="#DejaVuSans-2f" x="1009.769531"/>
     <use xlink:href="#DejaVuSans-52" x="1043.460938"/>
     <use xlink:href="#DejaVuSans-65" x="1108.443359"/>
     <use xlink:href="#DejaVuSans-77" x="1169.966797"/>
     <use xlink:href="#DejaVuSans-61" x="1251.753906"/>
     <use xlink:href="#DejaVuSans-72" x="1313.033203"/>
     <use xlink:href="#DejaVuSans-64" x="1352.396484"/>
     <use xlink:href="#DejaVuSans-65" x="1415.873047"/>
     <use xlink:href="#DejaVuSans-64" x="1477.396484"/>
     <use xlink:href="#DejaVuSans-20" x="1540.873047"/>
     <use xlink:href="#DejaVuSans-55" x="1572.660156"/>
     <use xlink:href="#DejaVuSans-6e" x="1645.853516"/>
     <use xlink:href="#DejaVuSans-69" x="1709.232422"/>
     <use xlink:href="#DejaVuSans-74" x="1737.015625"/>
     <use xlink:href="#DejaVuSans-73" x="1776.224609"/>
     <use xlink:href="#DejaVuSans-20" x="1828.324219"/>
     <use xlink:href="#DejaVuSans-28" x="1860.111328"/>
     <use xlink:href="#DejaVuSans-33" x="1899.125"/>
     <use xlink:href="#DejaVuSans-34" x="1962.748047"/>
     <use xlink:href="#DejaVuSans-2f" x="2026.371094"/>
     <use xlink:href="#DejaVuSans-32" x="2060.0625"/>
     <use xlink:href="#DejaVuSans-35" x="2123.685547"/>
     <use xlink:href="#DejaVuSans-37" x="2187.308594"/>
     <use xlink:href="#DejaVuSans-20" x="2250.931641"/>
     <use xlink:href="#DejaVuSans-55" x="2282.71875"/>
     <use xlink:href="#DejaVuSans-6e" x="2355.912109"/>
     <use xlink:href="#DejaVuSans-69" x="2419.291016"/>
     <use xlink:href="#DejaVuSans-74" x="2447.074219"/>
     <use xlink:href="#DejaVuSans-73" x="2486.283203"/>
     <use xlink:href="#DejaVuSans-29" x="2538.382812"/>
    </g>
   </g>
  </g>
 </g>
 <defs>
  <clipPath id="pc267078494">
   <rect x="216.996375" y="39.7185" width="446.4" height="426.441612"/>
  </clipPath>
 </defs>
</svg>
